<svg width="16" height="17" viewBox="0 0 16 17" fill="none" xmlns="http://www.w3.org/2000/svg">
<path d="M15.3281 12.2453C14.8945 11.4984 14.2499 9.38516 14.2499 6.625C14.2499 4.9674 13.5915 3.37769 12.4194 2.20558C11.2473 1.03348 9.65755 0.375 7.99995 0.375C6.34235 0.375 4.75263 1.03348 3.58053 2.20558C2.40843 3.37769 1.74995 4.9674 1.74995 6.625C1.74995 9.38594 1.10464 11.4984 0.671043 12.2453C0.560317 12.4352 0.501616 12.6509 0.500862 12.8707C0.500107 13.0905 0.557325 13.3066 0.666745 13.4973C0.776165 13.6879 0.933917 13.8463 1.12409 13.9565C1.31427 14.0667 1.53015 14.1248 1.74995 14.125H4.93823C5.08243 14.8306 5.46591 15.4647 6.0238 15.9201C6.5817 16.3756 7.27977 16.6243 7.99995 16.6243C8.72012 16.6243 9.4182 16.3756 9.97609 15.9201C10.534 15.4647 10.9175 14.8306 11.0617 14.125H14.2499C14.4697 14.1247 14.6855 14.0665 14.8755 13.9562C15.0656 13.846 15.2232 13.6875 15.3326 13.4969C15.4419 13.3063 15.499 13.0903 15.4983 12.8705C15.4975 12.6508 15.4388 12.4351 15.3281 12.2453ZM7.99995 15.375C7.61231 15.3749 7.23423 15.2546 6.91776 15.0308C6.60129 14.8069 6.36198 14.4905 6.23276 14.125H9.76714C9.63792 14.4905 9.39861 14.8069 9.08214 15.0308C8.76567 15.2546 8.38759 15.3749 7.99995 15.375ZM1.74995 12.875C2.35151 11.8406 2.99995 9.44375 2.99995 6.625C2.99995 5.29892 3.52673 4.02715 4.46442 3.08947C5.4021 2.15178 6.67387 1.625 7.99995 1.625C9.32603 1.625 10.5978 2.15178 11.5355 3.08947C12.4732 4.02715 12.9999 5.29892 12.9999 6.625C12.9999 9.44141 13.6468 11.8383 14.2499 12.875H1.74995Z" fill="#1C1C1C"/>
</svg>
