<svg width="18" height="15" viewBox="0 0 18 15" fill="none" xmlns="http://www.w3.org/2000/svg">
<path d="M15.875 0.625H2.125C1.79348 0.625 1.47554 0.756696 1.24112 0.991116C1.0067 1.22554 0.875 1.54348 0.875 1.875V13.125C0.875 13.4565 1.0067 13.7745 1.24112 14.0089C1.47554 14.2433 1.79348 14.375 2.125 14.375H15.875C16.2065 14.375 16.5245 14.2433 16.7589 14.0089C16.9933 13.7745 17.125 13.4565 17.125 13.125V1.875C17.125 1.54348 16.9933 1.22554 16.7589 0.991116C16.5245 0.756696 16.2065 0.625 15.875 0.625ZM2.125 9.375H3.375C3.54076 9.375 3.69973 9.30915 3.81694 9.19194C3.93415 9.07473 4 8.91576 4 8.75C4 8.58424 3.93415 8.42527 3.81694 8.30806C3.69973 8.19085 3.54076 8.125 3.375 8.125H2.125V6.875H3.375C3.54076 6.875 3.69973 6.80915 3.81694 6.69194C3.93415 6.57473 4 6.41576 4 6.25C4 6.08424 3.93415 5.92527 3.81694 5.80806C3.69973 5.69085 3.54076 5.625 3.375 5.625H2.125V4.375H3.375C3.54076 4.375 3.69973 4.30915 3.81694 4.19194C3.93415 4.07473 4 3.91576 4 3.75C4 3.58424 3.93415 3.42527 3.81694 3.30806C3.69973 3.19085 3.54076 3.125 3.375 3.125H2.125V1.875H5.25V13.125H2.125V9.375ZM15.875 13.125H6.5V1.875H15.875V13.125Z" fill="#1C1C1C"/>
</svg>
